<svg width="373" height="396" viewBox="0 0 373 396" fill="none" xmlns="http://www.w3.org/2000/svg">
<path d="M13.242 4.31079H4.90433V281.009" stroke="#FFA9EB" stroke-miterlimit="10"/>
<path d="M9.07029 193.076H1.11136V299.205H9.07029V193.076Z" stroke="#FFA9EB" stroke-miterlimit="10"/>
<path d="M133.561 386.764V394.723H239.69V386.764H133.561Z" stroke="#FFA9EB" stroke-miterlimit="10"/>
<path d="M148.94 390.741H336.184L368.307 358.618V136.979L360.205 128.876V30.087L368.307 22.2485V4.31079H170.166L162.207 12.2755" stroke="#FFA9EB" stroke-miterlimit="10"/>
<path d="M4.90433 331.804H26.8875L70.0964 375.013V390.741" stroke="#FFA9EB" stroke-miterlimit="10"/>
<path d="M82.9042 1H76.2823V7.62193H82.9042V1Z" fill="#FFA9EB"/>
<path d="M68.4955 1H61.8736V7.62193H68.4955V1Z" stroke="#FFA9EB" stroke-miterlimit="10"/>
<path d="M82.9042 1H76.2823V7.62193H82.9042V1Z" stroke="#FFA9EB" stroke-miterlimit="10"/>
<path d="M97.3129 1H90.691V7.62193H97.3129V1Z" stroke="#FFA9EB" stroke-miterlimit="10"/>
<path d="M23.3068 2.18799L19.0605 6.44002M28.3852 2.18799L24.1332 6.44002M33.4578 2.18799L29.2058 6.44002M38.5304 2.18799L34.2784 6.44002M43.603 2.18799L39.3567 6.44002M48.6756 2.18799L44.4293 6.44002M53.7539 2.18799L49.5019 6.44002" stroke="#FFA9EB" stroke-miterlimit="10"/>
<path d="M364.502 52.8562L367.527 55.8803V57.1484L364.502 60.1725L364.652 60.3159L367.676 57.2919H368.938L371.962 60.3159L372.111 60.1725L369.087 57.1427V55.8803L372.111 52.8562L371.962 52.707L368.938 55.7311H367.676L364.652 52.707L364.502 52.8562Z" fill="#FFA9EB"/>
<path d="M364.502 78.3511L367.527 81.3751V82.6376L364.502 85.6616L364.652 85.8108L367.676 82.7868H368.938L371.962 85.8108L372.111 85.6616L369.087 82.6376V81.3751L372.111 78.3511L371.962 78.2019L368.938 81.226H367.676L364.652 78.2019L364.502 78.3511Z" fill="#FFA9EB"/>
<path d="M364.502 103.841L367.527 106.865V108.133L364.502 111.157L364.652 111.306L367.676 108.282H368.938L371.962 111.306L372.111 111.157L369.087 108.133V106.865L372.111 103.841L371.962 103.691L368.938 106.715H367.676L364.652 103.691L364.502 103.841Z" fill="#FFA9EB"/>
</svg>
