<svg width="253" height="85" viewBox="0 0 253 85" fill="none" xmlns="http://www.w3.org/2000/svg">
<path d="M1 62.2138V4.8822H154.835" stroke="#FFA9EB" stroke-miterlimit="10"/>
<path d="M248.237 14.9612V79.5526H71.7747" stroke="#FFA9EB" stroke-miterlimit="10"/>
<path d="M218.33 1H210.566V8.76443H218.33V1Z" stroke="#FFA9EB" stroke-miterlimit="10"/>
<path d="M235.225 1H227.46V8.76443H235.225V1Z" fill="#FFA9EB"/>
<path d="M252.119 1H244.355V8.76443H252.119V1Z" stroke="#FFA9EB" stroke-miterlimit="10"/>
<path d="M61.8034 75.1052H1V84H61.8034V75.1052Z" stroke="#FFA9EB" stroke-miterlimit="10"/>
<path d="M165.345 2.39276L160.359 7.37841" stroke="#FFA9EB" stroke-miterlimit="10"/>
<path d="M171.293 2.39276L166.314 7.37841" stroke="#FFA9EB" stroke-miterlimit="10"/>
<path d="M177.24 2.39276L172.261 7.37841" stroke="#FFA9EB" stroke-miterlimit="10"/>
<path d="M183.195 2.39276L178.209 7.37841" stroke="#FFA9EB" stroke-miterlimit="10"/>
<path d="M189.143 2.39276L184.157 7.37841" stroke="#FFA9EB" stroke-miterlimit="10"/>
<path d="M195.091 2.39276L190.112 7.37841" stroke="#FFA9EB" stroke-miterlimit="10"/>
<path d="M201.038 2.39276L196.059 7.37841" stroke="#FFA9EB" stroke-miterlimit="10"/>
<rect x="10" y="16" width="228" height="52" fill="#FFA9EB"/>
</svg>
